<svg xmlns="http://www.w3.org/2000/svg" viewBox="0 0 64 64" fill="#ffffff">
  <g transform="rotate(-4 32 15)">
    <circle cx="14" cy="11" r="5.2"/>
    <circle cx="14" cy="19" r="5.2"/>
    <circle cx="50" cy="11" r="5.2"/>
    <circle cx="50" cy="19" r="5.2"/>
    <rect x="13" y="11.5" width="38" height="7" rx="3.5"/>
  </g>
  <g transform="rotate(3 32 32)">
    <circle cx="14" cy="28" r="5.2"/>
    <circle cx="14" cy="36" r="5.2"/>
    <circle cx="50" cy="28" r="5.2"/>
    <circle cx="50" cy="36" r="5.2"/>
    <rect x="13" y="28.5" width="38" height="7" rx="3.5"/>
  </g>
  <g transform="rotate(-2 32 49)">
    <circle cx="14" cy="45" r="5.2"/>
    <circle cx="14" cy="53" r="5.2"/>
    <circle cx="50" cy="45" r="5.2"/>
    <circle cx="50" cy="53" r="5.2"/>
    <rect x="13" y="45.5" width="38" height="7" rx="3.5"/>
  </g>
</svg>
